<?xml version="1.0" encoding="UTF-8"?>
<svg id="a" xmlns="http://www.w3.org/2000/svg" width="155" height="77.5" xmlns:xlink="http://www.w3.org/1999/xlink" viewBox="0 0 155 77.5"><defs><clipPath id="b"><rect width="155" height="77.5" style="fill:none; stroke-width:0px;"/></clipPath></defs><g style="clip-path:url(#b);"><g id="c"><path id="d" d="m147.7,9.5h.5c.7,0,1.1-.3,1.1-.7s-.4-.7-1-.7-.4,0-.6,0v1.4h0Zm0,3.3h-1.8v-5.8c.9-.1,1.7-.2,2.6-.2.8,0,1.6,0,2.4.4.4.3.7.8.6,1.3,0,.6-.6,1.1-1.4,1.3h0c.7.3,1.1.9,1.2,1.6,0,.5.2.9.4,1.4h-2c-.2-.4-.4-.8-.4-1.2,0-.5-.5-.9-1-.9,0,0,0,0,0,0h-.6v2.1h0Zm-4.1-3c0,2.7,2.1,4.9,4.8,5,2.7,0,4.9-2.1,5-4.8,0,0,0-.2,0-.2,0-2.7-2.1-4.9-4.8-5-2.7,0-4.9,2.1-5,4.8,0,0,0,.2,0,.2m11.4,0c-.1,3.6-3.2,6.5-6.8,6.3-3.4-.1-6.2-2.9-6.3-6.3.2-3.6,3.2-6.4,6.9-6.3,3.4.2,6.1,2.9,6.3,6.3" style="stroke-width:0px;"/><path id="e" d="m30.6,76.9c-3.5,0-6.9-.7-10.1-2.3-2.1,1.3-4.5,2-7,2-7.1,0-13-5.7-13-12.9V18.9c0-7.2,6-12.9,13.2-12.9,7.1,0,12.8,5.8,12.9,12.9v4.6c1.3-.2,2.7-.3,4-.3,3.2,0,6.4.6,9.3,1.8,3,1.2,5.8,3.1,8,5.4.5.5,1,1,1.4,1.6.3-.6.7-1.2,1.1-1.8,1.4-2,3.4-3.5,5.6-4.3,4.7-1.7,9.7-2.5,14.7-2.4,3.4,0,6.8.5,10,1.5.8.3,1.7.6,2.5,1-.4-.8-.7-1.6-.9-2.5-.3-.2-.6-.5-.9-.8-3.8-3.7-3.8-9.8,0-13.5,0,0,0,0,.1-.1,2.8-2.8,6.1-4.9,9.8-6.4,7.2-2.8,15.2-2.8,22.4,0,3.7,1.5,7.1,3.7,9.9,6.5,1.3,1.3,2.3,3,2.6,4.9,2.6.4,5,1.6,6.9,3.4,1.9,1.8,3.2,4.1,3.8,6.7,2.3.5,4.3,1.6,6,3.2,4.7,4.7,4.8,12.3.1,17,0,0,0,0-.1.1-1.6,1.6-3.5,2.7-5.7,3.2v4.9c5.3,1.3,9.1,6.1,9.1,11.6,0,4.9-3.1,9.3-7.6,11-2.8,1.1-5.9,1.6-8.9,1.6-2.2,0-4.4-.2-6.6-.8-2.4-.6-4.6-1.8-6.5-3.5-1.1-1-2-2.1-2.8-3.4-3.1,6.5-10.9,9.3-17.5,6.2-1.6-.8-3.1-1.9-4.3-3.3-.3.3-.6.6-.9.9-2.4,2.3-5.7,3.7-9.1,3.6-2.3,0-4.6-.6-6.6-1.7h0c-3.1,1.4-6.4,2-9.8,2-5.1,0-10-1.6-14-4.7-1.2-1-2.2-2.1-3.1-3.3-.2.2-.5.5-.7.7-2.3,2.3-5,4.2-8.1,5.4-3,1.2-6.2,1.8-9.4,1.8" style="fill:#020202; stroke-width:0px;"/><path id="f" d="m102.5,0c-3.9,0-7.7.7-11.3,2.2-3.7,1.5-7.1,3.7-10,6.5-4,3.9-4.1,10.3-.2,14.3,0,0,0,0,.1.1.3.3.5.5.8.7,0,.4.2.8.3,1.1-.4-.2-.8-.3-1.3-.5-3.3-1.1-6.7-1.6-10.2-1.5-5.1,0-10.1.7-14.9,2.5-2.4.9-4.4,2.4-5.9,4.5-.3.4-.5.8-.7,1.2-.3-.3-.6-.7-.9-1-2.3-2.4-5.1-4.3-8.2-5.5-4.1-1.7-8.6-2.3-13-1.6v-4c0-7.4-6.1-13.4-13.6-13.4C6.1,5.5,0,11.5,0,18.9v44.9c0,7.4,6.1,13.4,13.6,13.4,2.5,0,4.9-.7,7-1.9,3.1,1.5,6.6,2.2,10.1,2.2,3.3,0,6.5-.6,9.6-1.9,3.1-1.3,5.9-3.2,8.2-5.6,0,0,.2-.2.2-.3.8,1.1,1.8,2,2.8,2.9,4.1,3.2,9.2,4.9,14.4,4.8,3.4,0,6.7-.6,9.8-1.9,2,1.1,4.3,1.6,6.7,1.6,3.5,0,6.9-1.3,9.4-3.8.2-.2.3-.3.5-.5,5.2,5.5,13.8,5.7,19.3.6,1-.9,1.8-2,2.5-3.2.7,1,1.5,1.9,2.4,2.7,1.9,1.7,4.2,2.9,6.7,3.6,2.2.6,4.4.9,6.7.8,3.1,0,6.2-.5,9.1-1.6,6.4-2.4,9.6-9.5,7.2-15.9-.5-1.3-1.2-2.5-2.1-3.5-1.6-2-3.8-3.4-6.3-4.1v-4.1c2.1-.6,4-1.7,5.5-3.2,4.9-4.9,5-12.8.1-17.7,0,0,0,0-.1-.1-1.6-1.6-3.7-2.8-5.9-3.3-.6-2.5-2-4.8-3.9-6.6-1.9-1.8-4.3-3-6.9-3.5-.4-1.8-1.4-3.5-2.7-4.8-2.9-2.9-6.3-5.1-10.1-6.7C110.3.8,106.4,0,102.5,0m0,1.1c3.8,0,7.5.7,11.1,2.1,3.6,1.5,6.9,3.6,9.7,6.4,1.4,1.4,2.3,3.1,2.6,5,5.4.6,9.7,4.7,10.7,10,2.3.4,4.4,1.5,6,3.2,4.5,4.4,4.6,11.7.1,16.2,0,0,0,0-.1.1-1.6,1.6-3.6,2.7-5.8,3.1v5.8c5.3,1.1,9.1,5.8,9.1,11.2,0,4.7-2.9,8.9-7.3,10.5-4.8,1.7-10.1,2-15.1.7-2.3-.6-4.5-1.8-6.3-3.4-1.3-1.2-2.4-2.6-3.2-4.2-2.4,6.5-9.6,9.8-16.1,7.4-2.2-.8-4.1-2.2-5.5-4.1-.4.5-.8,1-1.2,1.4-2.3,2.2-5.4,3.5-8.7,3.5-2.3,0-4.6-.6-6.6-1.8,0,0-.2,0-.3.1-3,1.3-6.3,1.9-9.6,1.9-4.9,0-9.8-1.5-13.7-4.6-1.3-1.1-2.5-2.4-3.4-3.8-.4.4-.7.8-1.1,1.2-2.2,2.3-4.9,4.1-7.9,5.3-2.9,1.2-6,1.8-9.2,1.8-3.5,0-7-.8-10.1-2.3-2.1,1.3-4.5,2.1-6.9,2.1-6.8,0-12.4-5.5-12.5-12.3V18.9c0-6.9,5.7-12.4,12.6-12.4,6.8,0,12.3,5.6,12.4,12.4v5.3c1.5-.3,3-.4,4.6-.4,3.1,0,6.2.6,9.1,1.8,3,1.2,5.6,3,7.9,5.3.7.7,1.3,1.4,1.9,2.2.3-.9.8-1.8,1.4-2.6,1.3-1.9,3.2-3.3,5.4-4.1,4.6-1.7,9.6-2.5,14.5-2.4,3.3,0,6.7.5,9.8,1.5,1.5.5,2.9,1.2,4.3,2-1-1.2-1.7-2.7-2-4.2-.4-.3-.7-.6-1-.9-3.5-3.5-3.6-9.2,0-12.8,0,0,0,0,.1-.1,2.8-2.7,6-4.8,9.6-6.3,3.5-1.4,7.2-2.1,10.9-2.1" style="fill:#fff; stroke-width:0px;"/><path id="g" d="m36.9,49.8h0c0-6.3-4.2-10.4-9.2-10.4s-9.1,4.1-9.1,10.2h0c0,6.3,4.1,10.4,9.1,10.4s9.2-4,9.2-10.3M8.1,18.5c0-2.9,2.4-5.3,5.3-5.3s5.3,2.4,5.3,5.3v17.9c2.6-3.9,7-6.1,11.7-6,8.8,0,17.1,6.8,17.1,19.2h0c0,12.5-8.2,19.3-17.1,19.3-4.6,0-8.9-2-11.7-5.5h0c0,3-2.5,5.3-5.5,5.3-2.9,0-5.2-2.4-5.2-5.3V18.5Z" style="fill:#fff; stroke-width:0px;"/><path id="h" d="m77.3,55.2v-1.9c-2.1-.9-4.5-1.4-6.8-1.4-4.6,0-7.4,1.8-7.4,5.1h0c0,3,2.4,4.6,5.8,4.6,5,0,8.3-2.7,8.3-6.5m-24.5,2.4h0c0-8.2,6.2-12,15.1-12,3.1,0,6.2.5,9.2,1.5v-.6c0-4.4-2.7-6.8-8.1-6.8-2.5,0-5,.3-7.4,1-.5.2-1,.3-1.5.3-2.4,0-4.4-1.8-4.4-4.2,0,0,0,0,0,0,0-1.8,1.2-3.5,2.9-4.1,3.8-1.4,7.9-2,12-1.9,5.8,0,10,1.5,12.7,4.2,2.8,2.8,4.1,6.9,4.1,11.8v16.9c0,2.8-2.3,5.1-5.1,5.1,0,0,0,0,0,0-3.1,0-5.1-2.1-5.1-4.4h0c-2.9,3.1-7.1,4.8-11.4,4.6-7.1,0-12.9-4-12.9-11.4" style="fill:#fff; stroke-width:0px;"/><path id="i" d="m96.7,36c0-2.9,2.5-5.3,5.4-5.3,2.9,0,5.2,2.4,5.3,5.3v27.4c0,2.9-2.5,5.3-5.4,5.3-2.9,0-5.2-2.4-5.3-5.3v-27.4Z" style="fill:#fff; stroke-width:0px;"/><path id="j" d="m118.8,57.7v-17.6h-.3c-2.5,0-4.5-2-4.5-4.5s2-4.5,4.5-4.5h.3v-4.6c0-2.9,2.5-5.3,5.4-5.3,2.9,0,5.2,2.4,5.3,5.3v4.6h4.7c2.5,0,4.5,2,4.5,4.5s-2,4.5-4.5,4.5h-4.7v15.9c0,2.4,1.1,3.6,3.4,3.6s1.1,0,1.3,0c2.4,0,4.4,1.9,4.4,4.4,0,1.8-1.1,3.3-2.7,3.9-1.9.7-4,1.1-6.1,1-6.5,0-10.9-2.6-10.9-11.2" style="fill:#fff; stroke-width:0px;"/><path id="k" d="m116.5,17.7c-.6,0-1.1-.2-1.5-.6-7-6.9-18.3-7-25.3-.1-.8.8-2.1.8-2.9,0-.8-.8-.8-2.1,0-2.9,0,0,0,0,0,0,8.7-8.5,22.6-8.4,31.2.1.8.8.8,2.1,0,2.9,0,0,0,0,0,0-.4.4-.9.6-1.5.6" style="fill:#ffcb00; stroke-width:0px;"/><path id="l" d="m112.5,23.4c-.6,0-1.1-.2-1.5-.6-2.3-2.4-5.5-3.7-8.9-3.7h0c-3.3,0-6.5,1.3-8.8,3.6-.8.8-2.1.8-2.9,0-.8-.8-.8-2.1,0-2.9,0,0,0,0,0,0,3.1-3.1,7.4-4.8,11.8-4.8h0c4.4,0,8.7,1.8,11.8,4.9.8.8.8,2.1,0,2.9,0,0,0,0,0,0-.4.4-.9.6-1.5.6" style="fill:#ffcb00; stroke-width:0px;"/><path id="m" d="m109.1,29.2c-.6,0-1.1-.2-1.5-.6-3-3-7.9-3-11,0-.8.8-2.1.8-2.9,0-.8-.8-.8-2.1,0-2.9,0,0,0,0,0,0,4.7-4.6,12.2-4.5,16.9,0,.8.8.8,2.1,0,2.9,0,0,0,0,0,0-.4.4-.9.6-1.5.6" style="fill:#ffcb00; stroke-width:0px;"/></g></g></svg>